<svg xmlns="http://www.w3.org/2000/svg" width="44.135" height="25.893" viewBox="0 0 44.135 69.893"><defs><style>.a{fill:#1aa8e8;stroke:#1aa8e8;}</style></defs><g transform="translate(0.5 0.5)"><path class="a" d="M58.594,41.232h-8.1v-1.5a15.819,15.819,0,0,0,7.787-8.533l.031,0A6.646,6.646,0,0,0,62,19.023,19.407,19.407,0,0,0,43.963,5.01C43.777,5,43.581,5,43.383,5a19.252,19.252,0,0,0-18.61,14.028,6.632,6.632,0,0,0-.2,10.893V33.7a1.092,1.092,0,0,0,1.092,1.092H30.5a16.057,16.057,0,0,0,5.122,4.553v1.887H27.856a5.887,5.887,0,0,0-5.88,5.881V62.661c0,6.927,8.141,11.232,21.249,11.232,12.512,0,21.251-4.618,21.251-11.232V47.113A5.888,5.888,0,0,0,58.594,41.232Zm2.823-19.884a4.428,4.428,0,0,1,1.323,2.861c.008.113.034.221.034.336,0,.075-.016.145-.021.219a4.687,4.687,0,0,1-.066.661,4.461,4.461,0,0,1-3.716,3.521,15.941,15.941,0,0,0,.295-1.912c.037-.361.073-.722.085-1.09,0-.022,0-.044,0-.066.012-.345-.006-.686-.018-1.027a15.874,15.874,0,0,0-.885-4.753,4.415,4.415,0,0,1,2.965,1.251Zm-37.408,3.2c0-.12.025-.233.036-.351A4.42,4.42,0,0,1,28.318,20.1a16.18,16.18,0,0,0-.813,3.81c-.032.34-.071.679-.081,1.025,0,.022,0,.044,0,.065-.008.368.008.731.024,1.094a15.828,15.828,0,0,0,.383,2.854A4.456,4.456,0,0,1,24.009,24.545Zm2.752,8.062V30.964a6.6,6.6,0,0,0,1.715.233l.03,0c.188.481.4.954.632,1.412H26.761ZM28.477,17.9a6.573,6.573,0,0,0-1.049.091,17.08,17.08,0,0,1,15.956-10.8c.17,0,.341,0,.516.008a17.21,17.21,0,0,1,15.44,10.793,6.611,6.611,0,0,0-1.03-.088,6.7,6.7,0,0,0-.8.053A15.923,15.923,0,0,0,43.868,9.439c-.161-.005-.321-.008-.478-.008h0A15.877,15.877,0,0,0,29.26,17.949,6.65,6.65,0,0,0,28.477,17.9Zm28.551,5.553c-1.063,0-2.052-.057-2.984-.15-.374-.038-.744-.078-1.1-.128-.378-.054-.741-.115-1.1-.181-11-2.077-11.527-10.5-11.546-11.015a13.741,13.741,0,0,1,3.083-.361c.137,0,.273,0,.412.005a13.764,13.764,0,0,1,11.563,6.973q.276.479.512.981c.153.329.3.661.429,1A13.7,13.7,0,0,1,57.028,23.451ZM38.1,12.67c-.141,4.8-1.831,7.472-3.67,8.947a8.1,8.1,0,0,1-.913.635,8.534,8.534,0,0,1-3.769,1.2,13.671,13.671,0,0,1,.736-2.866c.129-.343.265-.68.419-1.009s.319-.667.5-.986A13.849,13.849,0,0,1,38.1,12.67ZM33.3,34.792h6.529A1.146,1.146,0,0,0,40.919,33.7a1.043,1.043,0,0,0-.043-.22,1.078,1.078,0,0,0-1.049-.873H31.643a13.636,13.636,0,0,1-.929-1.807c-.145-.338-.273-.684-.39-1.036s-.217-.69-.3-1.043a13.738,13.738,0,0,1-.387-2.563c-.008-.171-.008-.346-.011-.519a10.087,10.087,0,0,0,2.723-.494q.269-.084.55-.191.46-.172.947-.408c.062-.03.119-.05.179-.08.2-.1.4-.227.6-.346.132-.078.263-.142.4-.227.021-.015.044-.034.068-.049a11.275,11.275,0,0,0,4.584-6.666,15.071,15.071,0,0,0,9.4,7.371,22.689,22.689,0,0,0,2.626.636c.365.065.756.116,1.141.168.363.048.732.093,1.111.129,1.011.1,2.072.159,3.218.159h0c0,.06.007.117,0,.176,0,.021,0,.043-.006.065-.013.367-.046.73-.085,1.09a14.065,14.065,0,0,1-.312,1.754c-.088.352-.184.7-.3,1.046s-.255.7-.4,1.033a13.8,13.8,0,0,1-5.583,6.41q-.53.321-1.093.593-.534.262-1.092.476a13.715,13.715,0,0,1-4.9.914c-.137,0-.275,0-.413-.008a13.719,13.719,0,0,1-5.184-1.18c-.373-.166-.737-.352-1.091-.55-.376-.207-.741-.434-1.093-.675A13.978,13.978,0,0,1,33.3,34.792Zm15.008,9.88a5.255,5.255,0,0,1-5.246,5.1c-.053,0-.106,0-.158,0a5.244,5.244,0,0,1-5.087-5.248H37.8V40.355a15.764,15.764,0,0,0,3.444.877,16.533,16.533,0,0,0,1.676.14c.16,0,.32.008.478.008a16.373,16.373,0,0,0,2.074-.147,16.016,16.016,0,0,0,2.831-.619v3.908h-.011C48.3,44.569,48.308,44.618,48.306,44.672ZM62.291,62.659c0,5.5-8.538,9.046-19.066,9.046s-19.064-3.083-19.064-9.046V47.113a3.694,3.694,0,0,1,3.695-3.7H35.62v1.1a2.725,2.725,0,0,0,.017.286,7.394,7.394,0,0,0,7.2,7.146c.075,0,.149,0,.224,0a7.4,7.4,0,0,0,7.429-7.221c0-.047,0-.1,0-.163a.4.4,0,0,0,0-.052v-1.1h8.1a3.7,3.7,0,0,1,3.7,3.7Z" transform="translate(-21.824 -5)"/></g></svg>