<svg xmlns="http://www.w3.org/2000/svg" width="122.474" height="68.892" viewBox="0 0 122.474 68.892"><defs><style>.a{fill:#1aa8e8;}</style></defs><g transform="translate(0)"><path class="a" d="M137.17,183.4H125.025a6.206,6.206,0,0,0,.116-1.2V132.5a5.886,5.886,0,0,0-5.769-5.983H45.019A5.885,5.885,0,0,0,39.25,132.5v17.013H19.308a2.395,2.395,0,0,0,0,4.786H39.25v4.016H25.461a2.395,2.395,0,0,0,0,4.786H39.25v4.016H31.178a2.395,2.395,0,0,0,0,4.786H39.25v10.3a6.207,6.207,0,0,0,.116,1.2H27.216a2.395,2.395,0,0,0,0,4.786H137.17a2.395,2.395,0,0,0,0-4.786Zm-16.641-2.658-27.982-20.7,27.982-25.862Zm-33.161-22.32c-.039.034-.078.069-.116.107l-5.065,4.681L76.7,158.19c-.019-.018-.038-.035-.057-.052L47.289,131.3H116.71Zm-6.7,9.781a2.244,2.244,0,0,0,3.058-.009l5.285-4.885,27.162,20.09H48.058L74.99,163.009Zm-27.193-1.085H43.862V163.1h9.616a2.395,2.395,0,0,0,0-4.786H43.862V154.3h9.616a2.395,2.395,0,0,0,0-4.786H43.862V134.549l27.583,25.219L43.862,180.653V171.9h9.616a2.395,2.395,0,0,0,0-4.786Z" transform="translate(-17.002 -126.518)"/><path class="a" d="M203.958,367.8H135.8a2.377,2.377,0,0,0,0,4.755h68.157a2.377,2.377,0,1,0,0-4.755Z" transform="translate(-104.855 -303.663)"/></g></svg>