<svg xmlns="http://www.w3.org/2000/svg" width="122.474" height="68.892" viewBox="0 0 132.474 78.892"><defs><style>.a{fill:#1aa8e8;stroke:#1aa8e8;stroke-width:2px;}</style></defs><g transform="translate(1 1)"><path class="a" d="M74.7,55.857l-9.4-9.407a6.151,6.151,0,0,0-8.536,0l-4.18,4.181a2.957,2.957,0,0,1-4,0L41.14,43.186,70.506,13.044a1.605,1.605,0,0,0-2.3-2.24L38.867,40.915l-7-7a2.831,2.831,0,0,1,0-4l4.181-4.179a6.046,6.046,0,0,0,0-8.538L26.641,7.79a6.159,6.159,0,0,0-8.49-.046c-.149.137-3.665,3.377-5.814,5.626-5.773,6.007-6.748,13.566-2.9,22.466,2.57,5.941,7.429,12.52,14.82,20.073L9.5,71.061V56.073a1.606,1.606,0,1,0-3.211,0V74.994A1.606,1.606,0,0,0,7.891,76.6H26.812a1.606,1.606,0,1,0,0-3.211h-15.1L26.534,58.175c11.888,11.646,21.405,17.1,29.857,17.1A17.92,17.92,0,0,0,69.12,69.971c2.631-2.415,5.5-5.488,5.583-5.578a6.042,6.042,0,0,0,0-8.536Zm-62.316-21.3c-3.335-7.707-2.594-13.911,2.269-18.97,2.079-2.177,5.634-5.452,5.716-5.53a2.952,2.952,0,0,1,4,0l9.406,9.41a2.834,2.834,0,0,1,0,4l-4.181,4.179a6.045,6.045,0,0,0,0,8.539l7.031,7.031L26.5,53.608C19.419,46.367,14.793,40.124,12.388,34.561Zm60.007,27.6c-.028.031-2.905,3.111-5.472,5.468a14.846,14.846,0,0,1-10.531,4.435c-7.566,0-16.37-5.165-27.617-16.189L38.9,45.485,46.314,52.9a6.161,6.161,0,0,0,8.538,0l4.181-4.181a2.945,2.945,0,0,1,4,0l9.4,9.407a2.8,2.8,0,0,1,.825,2A2.834,2.834,0,0,1,72.394,62.162Z" transform="translate(-6.285 -6.07)"/></g></svg>