<svg xmlns="http://www.w3.org/2000/svg" width="122.474" height="68.892" viewBox="0 0 132.474 78.892"><defs><style>.a{fill:#1aa8e8;stroke:#1aa8e8;stroke-width:2px;}</style></defs><g transform="translate(1 1.006)"><path class="a" d="M11.128,24.6A10.028,10.028,0,1,0,21.155,34.628,10.062,10.062,0,0,0,11.128,24.6Zm0,18.295a8.229,8.229,0,1,1,8.267-8.267A8.281,8.281,0,0,1,11.128,42.895Z" transform="translate(-1.1 -14.137)"/><path class="a" d="M82.7,58.6a25.587,25.587,0,0,1-.23-4.669c0-6.2.077-15.615-7.042-26.868h0l-4.363-6.736a5.071,5.071,0,0,0-3.292-2.3,5.172,5.172,0,0,0-3.98.689.075.075,0,0,0-.077.077,6.155,6.155,0,0,0-1.684,1.761,5.038,5.038,0,0,0-2.143-1,5.551,5.551,0,0,0-4.134.689c-.077,0-.077.077-.153.077a5.175,5.175,0,0,0-1.99,2.449,5.7,5.7,0,0,0-4.976.23c-.077,0-.153.077-.23.077A5.359,5.359,0,0,0,46.8,24.686L39.83,13.663a5.873,5.873,0,0,0-8.114-1.837l-.077.077h-.077a6.1,6.1,0,0,0-2.6,3.674,6.062,6.062,0,0,0,.765,4.44L41.437,38.387c-.612.306-1.148.689-1.684,1-.306.153-.536.383-.842.536h0a6.107,6.107,0,0,0-2.679,3.9,5.927,5.927,0,0,0,.842,4.669l4.134,6.43c.077.077.153.23.23.306,4.976,6.889,11.023,8.65,15.156,9.8a24.839,24.839,0,0,1,2.832.919.69.69,0,0,0,.383.077h0c1.914.459,2.449,1.378,3.521,3.062l.383.612a1.71,1.71,0,0,0,1.378.765,1.543,1.543,0,0,0,.842-.23,1.614,1.614,0,0,0,.536-2.22l-.383-.536c-1.148-1.914-2.373-3.827-5.588-4.516h0a24.008,24.008,0,0,0-3.062-1c-4.134-1.225-9.8-2.832-14.238-9.875h0l-3.445-5.358a2.859,2.859,0,0,1-.383-2.22,2.689,2.689,0,0,1,1.3-1.837h0c.306-.23.612-.383.919-.612.536-.383,1.378-.919,1.531-1a4.408,4.408,0,0,1,.306.383l4.746,7.5a1.71,1.71,0,0,0,1.378.765,1.556,1.556,0,0,0,1.3-2.449l-4.746-7.5h0L32.481,18.332a2.646,2.646,0,0,1,.765-3.674l.077-.077H33.4a2.646,2.646,0,0,1,3.674.765L46.719,30.5h0l4.516,7.119a1.71,1.71,0,0,0,1.378.765,1.556,1.556,0,0,0,1.3-2.449L49.4,28.819a2.248,2.248,0,0,1,.689-3.138h0a2.248,2.248,0,0,1,3.138.689l4.516,7.119a1.71,1.71,0,0,0,1.378.765,1.556,1.556,0,0,0,1.3-2.449L56.67,25.91h0a2.243,2.243,0,0,1-.306-1.684,2.058,2.058,0,0,1,1-1.378h0a2.243,2.243,0,0,1,1.684-.306,2.407,2.407,0,0,1,1.454,1l1.531,2.373h0l2.985,4.746a1.71,1.71,0,0,0,1.378.765,1.556,1.556,0,0,0,1.3-2.449l-3.062-4.746h0a2.36,2.36,0,0,1-.306-1.607,2.282,2.282,0,0,1,.919-1.3h0a2.36,2.36,0,0,1,1.607-.306,2.282,2.282,0,0,1,1.3.919l4.363,6.813C79.175,39.229,79.1,48.032,79.1,53.85a28.087,28.087,0,0,0,.306,5.435,1.548,1.548,0,0,0,1.531,1.225.69.69,0,0,0,.383-.077A1.49,1.49,0,0,0,82.7,58.6Z" transform="translate(-7.604 -10.931)"/><path class="a" d="M11.827,41.152C10.22,42.147,8,39.774,8,39.774l2.143-2.449s1.378,1.225,1.914,1a8.913,8.913,0,0,0,2.679-4.057c.23-.536-1.684-1.378-1.684-1.378L14.43,29.9s2.756,1.072,2.679,2.6A10.859,10.859,0,0,1,11.827,41.152Z" transform="translate(-2.718 -15.38)"/></g></svg>