<svg xmlns="http://www.w3.org/2000/svg" width="50.685" height="30.145" viewBox="0 0 70.685 70.145"><defs><style>.a{fill:#1aa8e8;stroke:#1aa8e8;}</style></defs><g transform="translate(0.5 0.5)"><g transform="translate(0 0)"><path class="a" d="M20.656,46.136A21.418,21.418,0,0,0,16.233,44.3a1.085,1.085,0,0,0-1.187.539L12.35,49.7h-.863l-2.7-4.854A1.085,1.085,0,0,0,7.6,44.3a19.233,19.233,0,0,0-4.423,1.834,3.549,3.549,0,0,0-1.726,2.7L.7,58a1.435,1.435,0,0,0,.324.863,1.165,1.165,0,0,0,.755.324H21.843a.979.979,0,0,0,.755-.324A1.225,1.225,0,0,0,22.921,58l-.647-9.277A3.009,3.009,0,0,0,20.656,46.136ZM18.822,57.031,18.5,53.147a.974.974,0,0,0-1.187-.971.974.974,0,0,0-.971,1.187l.324,3.668H6.957l.324-3.668a1.174,1.174,0,0,0-.971-1.187,1.174,1.174,0,0,0-1.187.971L4.8,57.031H2.965L3.5,48.94a.854.854,0,0,1,.539-.863,25.634,25.634,0,0,1,3.128-1.4l2.589,4.638a1.133,1.133,0,0,0,.971.539h2.157a1.133,1.133,0,0,0,.971-.539l2.589-4.638a19.929,19.929,0,0,1,3.128,1.4,1.133,1.133,0,0,1,.539.971l.539,8.09H18.822Z" transform="translate(-0.7 2.406)"/><path class="a" d="M42.648,53.036A21.418,21.418,0,0,0,38.226,51.2a1.084,1.084,0,0,0-1.187.539l-2.7,4.854h-.863l-2.7-4.854A1.085,1.085,0,0,0,29.6,51.2a19.233,19.233,0,0,0-4.423,1.834,3.549,3.549,0,0,0-1.726,2.7L22.8,65.009a1.435,1.435,0,0,0,.324.863,1.165,1.165,0,0,0,.755.324H43.943a.979.979,0,0,0,.755-.324,1.225,1.225,0,0,0,.324-.863l-.647-9.277A3.651,3.651,0,0,0,42.648,53.036ZM40.814,63.931l-.324-3.883a1.084,1.084,0,1,0-2.157.216l.324,3.668H28.949l.324-3.668a1.174,1.174,0,0,0-.971-1.187,1.088,1.088,0,0,0-1.187.971l-.324,3.883H24.957l.539-8.09a.854.854,0,0,1,.539-.863,25.634,25.634,0,0,1,3.128-1.4l2.589,4.638a1.133,1.133,0,0,0,.971.539h2.157a1.133,1.133,0,0,0,.971-.539l2.589-4.638a19.929,19.929,0,0,1,3.128,1.4,1.133,1.133,0,0,1,.539.971l.539,8.09H40.814Z" transform="translate(1.039 2.949)"/><path class="a" d="M66.274,48.733a3.431,3.431,0,0,0-1.618-2.7A21.418,21.418,0,0,0,60.233,44.2a1.084,1.084,0,0,0-1.187.539L56.35,49.6h-.863l-2.7-4.854A1.084,1.084,0,0,0,51.6,44.2a19.233,19.233,0,0,0-4.423,1.834,3.549,3.549,0,0,0-1.726,2.7L44.7,58.009a1.434,1.434,0,0,0,.324.863,1.165,1.165,0,0,0,.755.324H65.843a.979.979,0,0,0,.755-.324,1.225,1.225,0,0,0,.324-.863Zm-3.452,8.306L62.5,53.155a1.084,1.084,0,1,0-2.157.216l.324,3.668H50.957l.324-3.668a1.084,1.084,0,1,0-2.157-.216L48.8,57.039H46.965l.539-8.09a.854.854,0,0,1,.539-.863,25.635,25.635,0,0,1,3.128-1.4l2.589,4.638a1.133,1.133,0,0,0,.971.539h2.157a1.133,1.133,0,0,0,.971-.539l2.589-4.638a19.93,19.93,0,0,1,3.128,1.4,1.133,1.133,0,0,1,.539.971l.539,8.09H62.822Z" transform="translate(2.763 2.398)"/><path class="a" d="M33.575,25.449A7.875,7.875,0,1,0,25.7,17.575,7.919,7.919,0,0,0,33.575,25.449Zm0-13.592a5.717,5.717,0,1,1,0,11.434,5.717,5.717,0,0,1,0-11.434Z" transform="translate(1.268 -0.315)"/><path class="a" d="M10.362,32.283v4.423a5.184,5.184,0,0,0-3.991,4.962c0,2.913,2.265,6.364,5.07,6.364s5.07-3.452,5.07-6.364a5,5,0,0,0-3.991-4.962V32.283l4.638-4.638a1.068,1.068,0,0,0-1.51-1.51l-3.128,3.128V19.338h5.394v1.4a1.081,1.081,0,0,0,1.079,1.079l2.373.108a13.657,13.657,0,0,0,1.4,3.452l-1.618,1.834a1.148,1.148,0,0,0,0,1.51l3.56,3.56a1.043,1.043,0,0,0,1.51,0l1.834-1.618a13.656,13.656,0,0,0,3.452,1.4l.108,2.373a1.16,1.16,0,0,0,1.079,1.079h1.4v8.63A5.184,5.184,0,0,0,30.1,49.11c0,2.913,2.265,6.364,5.07,6.364s5.07-3.452,5.07-6.364a5,5,0,0,0-3.991-4.962v-8.63h1.4a1.081,1.081,0,0,0,1.079-1.079l.108-2.373a13.657,13.657,0,0,0,3.452-1.4l1.834,1.618a1.148,1.148,0,0,0,1.51,0l3.56-3.56a1.043,1.043,0,0,0,0-1.51l-1.618-1.834a13.657,13.657,0,0,0,1.4-3.452l2.373-.108a1.16,1.16,0,0,0,1.079-1.079v-1.4h5.394v9.924L54.7,26.134a1.068,1.068,0,0,0-1.51,1.51l4.638,4.638v4.423a5.184,5.184,0,0,0-3.991,4.962c0,2.913,2.265,6.364,5.07,6.364s5.07-3.452,5.07-6.364a5,5,0,0,0-3.991-4.962V32.283l4.638-4.638a1.068,1.068,0,0,0-1.51-1.51l-3.128,3.128v-11A1.019,1.019,0,0,0,58.9,17.181H52.432v-1.4A1.081,1.081,0,0,0,51.353,14.7l-2.373-.108a13.657,13.657,0,0,0-1.4-3.452L49.2,9.306a1.148,1.148,0,0,0,0-1.51l-3.56-3.56a1.043,1.043,0,0,0-1.51,0L42.292,5.854a13.657,13.657,0,0,0-3.452-1.4l-.108-2.373A1.16,1.16,0,0,0,37.653,1h-5.07A1.081,1.081,0,0,0,31.5,2.079L31.4,4.452a13.657,13.657,0,0,0-3.452,1.4L26.219,4.236a1.148,1.148,0,0,0-1.51,0L21.149,7.8a1.043,1.043,0,0,0,0,1.51l1.618,1.834a13.657,13.657,0,0,0-1.4,3.452l-2.373.108a1.16,1.16,0,0,0-1.079,1.079v1.4H11.441a1.019,1.019,0,0,0-1.079,1.079v11L7.234,26.134a1.068,1.068,0,0,0-1.51,1.51ZM58.9,38.755a2.9,2.9,0,0,1,2.913,2.913c0,1.726-1.51,4.207-2.913,4.207-1.51,0-2.913-2.481-2.913-4.207A2.971,2.971,0,0,1,58.9,38.755ZM38.085,49.218c0,1.726-1.51,4.207-2.913,4.207-1.51,0-2.913-2.481-2.913-4.207a2.913,2.913,0,0,1,5.825,0ZM20.07,18.259h0v-1.51l2.157-.108a.944.944,0,0,0,.971-.863,11.974,11.974,0,0,1,1.726-4.207.982.982,0,0,0-.108-1.294l-1.51-1.618,2.05-2.05,1.618,1.51a1.131,1.131,0,0,0,1.294.108,12.874,12.874,0,0,1,4.423-1.834,1.147,1.147,0,0,0,.863-.971l.108-2.157h3.02l.108,2.157a.944.944,0,0,0,.863.971A11.975,11.975,0,0,1,41.86,8.119a.982.982,0,0,0,1.294-.108L44.773,6.5l2.05,2.05-1.51,1.618a1.131,1.131,0,0,0-.108,1.294A11.974,11.974,0,0,1,46.93,15.67a1.147,1.147,0,0,0,.971.863l2.157.108v3.02L47.9,19.77a.944.944,0,0,0-.971.863A11.974,11.974,0,0,1,45.2,24.839a.982.982,0,0,0,.108,1.294l1.51,1.618-2.05,2.05-1.618-1.51a1.131,1.131,0,0,0-1.294-.108,11.974,11.974,0,0,1-4.207,1.726,1.147,1.147,0,0,0-.863.971l-.108,2.157h-3.02l-.108-2.157a.944.944,0,0,0-.863-.971,11.974,11.974,0,0,1-4.207-1.726.982.982,0,0,0-1.294.108L25.572,29.8l-2.157-1.834,1.51-1.618a1.131,1.131,0,0,0,.108-1.294,11.975,11.975,0,0,1-1.726-4.207,1.147,1.147,0,0,0-.971-.863l-2.157-.108V18.259Zm-8.63,20.5a2.9,2.9,0,0,1,2.913,2.913c0,1.726-1.51,4.207-2.913,4.207-1.51,0-2.913-2.481-2.913-4.207A2.971,2.971,0,0,1,11.441,38.755Z" transform="translate(-0.33 -1)"/></g><g transform="translate(0 0)"><path class="a" d="M20.656,46.136A21.418,21.418,0,0,0,16.233,44.3a1.085,1.085,0,0,0-1.187.539L12.35,49.7h-.863l-2.7-4.854A1.085,1.085,0,0,0,7.6,44.3a19.233,19.233,0,0,0-4.423,1.834,3.549,3.549,0,0,0-1.726,2.7L.7,58a1.435,1.435,0,0,0,.324.863,1.165,1.165,0,0,0,.755.324H21.843a.979.979,0,0,0,.755-.324A1.225,1.225,0,0,0,22.921,58l-.647-9.277A3.009,3.009,0,0,0,20.656,46.136ZM18.822,57.031,18.5,53.147a.974.974,0,0,0-1.187-.971.974.974,0,0,0-.971,1.187l.324,3.668H6.957l.324-3.668a1.174,1.174,0,0,0-.971-1.187,1.174,1.174,0,0,0-1.187.971L4.8,57.031H2.965L3.5,48.94a.854.854,0,0,1,.539-.863,25.634,25.634,0,0,1,3.128-1.4l2.589,4.638a1.133,1.133,0,0,0,.971.539h2.157a1.133,1.133,0,0,0,.971-.539l2.589-4.638a19.929,19.929,0,0,1,3.128,1.4,1.133,1.133,0,0,1,.539.971l.539,8.09H18.822Z" transform="translate(-0.7 2.406)"/><path class="a" d="M42.648,53.036A21.418,21.418,0,0,0,38.226,51.2a1.084,1.084,0,0,0-1.187.539l-2.7,4.854h-.863l-2.7-4.854A1.085,1.085,0,0,0,29.6,51.2a19.233,19.233,0,0,0-4.423,1.834,3.549,3.549,0,0,0-1.726,2.7L22.8,65.009a1.435,1.435,0,0,0,.324.863,1.165,1.165,0,0,0,.755.324H43.943a.979.979,0,0,0,.755-.324,1.225,1.225,0,0,0,.324-.863l-.647-9.277A3.651,3.651,0,0,0,42.648,53.036ZM40.814,63.931l-.324-3.883a1.084,1.084,0,1,0-2.157.216l.324,3.668H28.949l.324-3.668a1.174,1.174,0,0,0-.971-1.187,1.088,1.088,0,0,0-1.187.971l-.324,3.883H24.957l.539-8.09a.854.854,0,0,1,.539-.863,25.634,25.634,0,0,1,3.128-1.4l2.589,4.638a1.133,1.133,0,0,0,.971.539h2.157a1.133,1.133,0,0,0,.971-.539l2.589-4.638a19.929,19.929,0,0,1,3.128,1.4,1.133,1.133,0,0,1,.539.971l.539,8.09H40.814Z" transform="translate(1.039 2.949)"/><path class="a" d="M66.274,48.733a3.431,3.431,0,0,0-1.618-2.7A21.418,21.418,0,0,0,60.233,44.2a1.084,1.084,0,0,0-1.187.539L56.35,49.6h-.863l-2.7-4.854A1.084,1.084,0,0,0,51.6,44.2a19.233,19.233,0,0,0-4.423,1.834,3.549,3.549,0,0,0-1.726,2.7L44.7,58.009a1.434,1.434,0,0,0,.324.863,1.165,1.165,0,0,0,.755.324H65.843a.979.979,0,0,0,.755-.324,1.225,1.225,0,0,0,.324-.863Zm-3.452,8.306L62.5,53.155a1.084,1.084,0,1,0-2.157.216l.324,3.668H50.957l.324-3.668a1.084,1.084,0,1,0-2.157-.216L48.8,57.039H46.965l.539-8.09a.854.854,0,0,1,.539-.863,25.635,25.635,0,0,1,3.128-1.4l2.589,4.638a1.133,1.133,0,0,0,.971.539h2.157a1.133,1.133,0,0,0,.971-.539l2.589-4.638a19.93,19.93,0,0,1,3.128,1.4,1.133,1.133,0,0,1,.539.971l.539,8.09H62.822Z" transform="translate(2.763 2.398)"/><path class="a" d="M33.575,25.449A7.875,7.875,0,1,0,25.7,17.575,7.919,7.919,0,0,0,33.575,25.449Zm0-13.592a5.717,5.717,0,1,1,0,11.434,5.717,5.717,0,0,1,0-11.434Z" transform="translate(1.268 -0.315)"/><path class="a" d="M10.362,32.283v4.423a5.184,5.184,0,0,0-3.991,4.962c0,2.913,2.265,6.364,5.07,6.364s5.07-3.452,5.07-6.364a5,5,0,0,0-3.991-4.962V32.283l4.638-4.638a1.068,1.068,0,0,0-1.51-1.51l-3.128,3.128V19.338h5.394v1.4a1.081,1.081,0,0,0,1.079,1.079l2.373.108a13.657,13.657,0,0,0,1.4,3.452l-1.618,1.834a1.148,1.148,0,0,0,0,1.51l3.56,3.56a1.043,1.043,0,0,0,1.51,0l1.834-1.618a13.656,13.656,0,0,0,3.452,1.4l.108,2.373a1.16,1.16,0,0,0,1.079,1.079h1.4v8.63A5.184,5.184,0,0,0,30.1,49.11c0,2.913,2.265,6.364,5.07,6.364s5.07-3.452,5.07-6.364a5,5,0,0,0-3.991-4.962v-8.63h1.4a1.081,1.081,0,0,0,1.079-1.079l.108-2.373a13.657,13.657,0,0,0,3.452-1.4l1.834,1.618a1.148,1.148,0,0,0,1.51,0l3.56-3.56a1.043,1.043,0,0,0,0-1.51l-1.618-1.834a13.657,13.657,0,0,0,1.4-3.452l2.373-.108a1.16,1.16,0,0,0,1.079-1.079v-1.4h5.394v9.924L54.7,26.134a1.068,1.068,0,0,0-1.51,1.51l4.638,4.638v4.423a5.184,5.184,0,0,0-3.991,4.962c0,2.913,2.265,6.364,5.07,6.364s5.07-3.452,5.07-6.364a5,5,0,0,0-3.991-4.962V32.283l4.638-4.638a1.068,1.068,0,0,0-1.51-1.51l-3.128,3.128v-11A1.019,1.019,0,0,0,58.9,17.181H52.432v-1.4A1.081,1.081,0,0,0,51.353,14.7l-2.373-.108a13.657,13.657,0,0,0-1.4-3.452L49.2,9.306a1.148,1.148,0,0,0,0-1.51l-3.56-3.56a1.043,1.043,0,0,0-1.51,0L42.292,5.854a13.657,13.657,0,0,0-3.452-1.4l-.108-2.373A1.16,1.16,0,0,0,37.653,1h-5.07A1.081,1.081,0,0,0,31.5,2.079L31.4,4.452a13.657,13.657,0,0,0-3.452,1.4L26.219,4.236a1.148,1.148,0,0,0-1.51,0L21.149,7.8a1.043,1.043,0,0,0,0,1.51l1.618,1.834a13.657,13.657,0,0,0-1.4,3.452l-2.373.108a1.16,1.16,0,0,0-1.079,1.079v1.4H11.441a1.019,1.019,0,0,0-1.079,1.079v11L7.234,26.134a1.068,1.068,0,0,0-1.51,1.51ZM58.9,38.755a2.9,2.9,0,0,1,2.913,2.913c0,1.726-1.51,4.207-2.913,4.207-1.51,0-2.913-2.481-2.913-4.207A2.971,2.971,0,0,1,58.9,38.755ZM38.085,49.218c0,1.726-1.51,4.207-2.913,4.207-1.51,0-2.913-2.481-2.913-4.207a2.913,2.913,0,0,1,5.825,0ZM20.07,18.259h0v-1.51l2.157-.108a.944.944,0,0,0,.971-.863,11.974,11.974,0,0,1,1.726-4.207.982.982,0,0,0-.108-1.294l-1.51-1.618,2.05-2.05,1.618,1.51a1.131,1.131,0,0,0,1.294.108,12.874,12.874,0,0,1,4.423-1.834,1.147,1.147,0,0,0,.863-.971l.108-2.157h3.02l.108,2.157a.944.944,0,0,0,.863.971A11.975,11.975,0,0,1,41.86,8.119a.982.982,0,0,0,1.294-.108L44.773,6.5l2.05,2.05-1.51,1.618a1.131,1.131,0,0,0-.108,1.294A11.974,11.974,0,0,1,46.93,15.67a1.147,1.147,0,0,0,.971.863l2.157.108v3.02L47.9,19.77a.944.944,0,0,0-.971.863A11.974,11.974,0,0,1,45.2,24.839a.982.982,0,0,0,.108,1.294l1.51,1.618-2.05,2.05-1.618-1.51a1.131,1.131,0,0,0-1.294-.108,11.974,11.974,0,0,1-4.207,1.726,1.147,1.147,0,0,0-.863.971l-.108,2.157h-3.02l-.108-2.157a.944.944,0,0,0-.863-.971,11.974,11.974,0,0,1-4.207-1.726.982.982,0,0,0-1.294.108L25.572,29.8l-2.157-1.834,1.51-1.618a1.131,1.131,0,0,0,.108-1.294,11.975,11.975,0,0,1-1.726-4.207,1.147,1.147,0,0,0-.971-.863l-2.157-.108V18.259Zm-8.63,20.5a2.9,2.9,0,0,1,2.913,2.913c0,1.726-1.51,4.207-2.913,4.207-1.51,0-2.913-2.481-2.913-4.207A2.971,2.971,0,0,1,11.441,38.755Z" transform="translate(-0.33 -1)"/></g></g></svg>