<svg xmlns="http://www.w3.org/2000/svg"  width="122.474" height="68.892" viewBox="0 0 132.474 78.892"><defs><style>.a{fill:#1aa8e8;}</style></defs><path class="a" d="M63.792,25.938a26.175,26.175,0,0,0-51.671,0A10.753,10.753,0,0,0,4,36.351v7.98A10.838,10.838,0,0,0,14.81,55.14h.877A26.571,26.571,0,0,0,28.534,65.78,7.442,7.442,0,0,0,35.891,72.2h4.131a7.47,7.47,0,0,0,0-14.941H35.891a7.386,7.386,0,0,0-5.886,2.83,20.431,20.431,0,0,1-8.8-7.131A10.781,10.781,0,0,0,25.619,44.3V36.351a10.81,10.81,0,0,0-7.782-10.328,20.544,20.544,0,0,1,40.267,0,10.81,10.81,0,0,0-7.81,10.328v7.98a10.81,10.81,0,1,0,21.619,0v-7.98A10.753,10.753,0,0,0,63.792,25.938Zm-27.9,36.786h4.131a1.811,1.811,0,0,1,1.811,1.811,1.839,1.839,0,0,1-1.811,1.811H35.891a1.839,1.839,0,0,1-1.811-1.811,1.811,1.811,0,0,1,1.811-1.7ZM19.96,36.351v7.98a5.15,5.15,0,0,1-10.3,0v-7.98a5.15,5.15,0,0,1,10.3,0Zm46.294,7.98a5.15,5.15,0,0,1-10.3,0v-7.98a5.15,5.15,0,1,1,10.3,0Z" transform="translate(-4 -3.965)"/></svg>